<svg width="64" height="64" viewBox="0 0 64 64" fill="none" xmlns="http://www.w3.org/2000/svg">
<g clip-path="url(#clip0_5_1766)">
<path d="M32 32H28C25.7909 32 24 33.7909 24 36C24 38.2091 25.7909 40 28 40H32C36.4183 40 40 36.4183 40 32C40 27.5817 36.4183 24 32 24H28C21.3726 24 16 29.4348 16 36.0622C16 42.7586 21.4285 48.25 28.125 48.25H32.125C41.0306 48.25 48.25 41.0306 48.25 32.125C48.25 23.2194 41.0306 16 32.125 16H28C16.9543 16 8 24.9543 8 36C8 47.0457 16.9543 56 28 56H32C45.2548 56 56 45.2548 56 32C56 18.7452 45.2548 8 32 8" stroke="white" stroke-width="4" stroke-linecap="round"/>
</g>
<defs>
<clipPath id="clip0_5_1766">
<rect width="64" height="64" fill="white"/>
</clipPath>
</defs>
</svg>
